<?xml version="1.0" encoding="utf-8"?>
<!-- Generator: Adobe Illustrator 25.4.1, SVG Export Plug-In . SVG Version: 6.00 Build 0)  -->
<svg version="1.1" xmlns="http://www.w3.org/2000/svg" xmlns:xlink="http://www.w3.org/1999/xlink" x="0px" y="0px"
	 viewBox="0 0 686.2 248.5" style="enable-background:new 0 0 686.2 248.5;" xml:space="preserve">
<style type="text/css">
	.st0{fill:#101920;}
	.st1{fill:#FFFFFF;}
	.st2{fill:#00AFCE;}
	.st3{fill:none;}
</style>
<g id="Layer_3">
</g>
<g id="Layer_1">
	<g>
		<g>
			<path class="st1" d="M340.7,100.1c-5.7,0-8.8-3.3-8.8-9.6V60.9h13.4l3.6-12.7h-17V34.6l-14.8,4.3v52c0,14.1,7.9,21.5,21.8,21.5
				c5.3,0,10.7-1.4,14.2-4.3L349,97.5C346.7,99.3,343.8,100.1,340.7,100.1z"/>
			<path class="st1" d="M134.7,74.2v37.4H123l-2.2-7.8c-3.6,5.5-10.4,8.6-19.9,8.6c-14.5,0-23.6-8-23.6-19.1c0-10.6,7.1-19,26.3-19
				h16.4v-1c0-8.7-5.2-13.9-15.8-13.9c-7.1,0-14.5,2.4-19.2,6.3l-5.8-10.9c6.8-5.3,16.6-7.9,26.8-7.9
				C124.2,47,134.7,55.8,134.7,74.2z M119.9,91.6v-7.4h-15.3c-10.1,0-12.8,3.8-12.8,8.5c0,5.4,4.5,8.8,12.1,8.8
				C111.1,101.5,117.4,98.2,119.9,91.6z"/>
			<path class="st1" d="M234.3,84.4h-49.7c1.8,9.3,9.5,15.3,20.5,15.3c7.1,0,12.7-2.3,17.2-6.9l7.9,9.2
				c-5.7,6.8-14.6,10.4-25.5,10.4c-21.2,0-35-13.7-35-32.7S183.6,47,202.5,47c18.5,0,32,13,32,33C234.5,81.2,234.4,83,234.3,84.4z
				 M184.4,74.5h35.9c-1.2-9.2-8.2-15.5-17.9-15.5C192.9,59,185.9,65.2,184.4,74.5z"/>
			<polygon class="st1" points="145.9,30.5 145.9,111.6 160.7,111.6 160.7,26.2 			"/>
			<polygon class="st2" points="73.4,26.2 69.8,38.9 95.3,38.9 98.9,26.2 			"/>
			<polygon class="st1" points="28.3,26.2 24.7,38.9 51.2,38.9 51.2,111.6 66.1,111.6 66.1,26.2 			"/>
			<path class="st1" d="M279.5,47c-9.2,0-17,3.1-21.8,9l-2-6.9l-12.1,3.5v59h14.8V79.3c0-12.8,7.1-19.2,17.7-19.2
				c9.5,0,15.1,5.5,15.1,16.9v34.6h14.8V75C305.9,55.8,294.7,47,279.5,47z"/>
		</g>
		<g>
			<path class="st2" d="M457,201.9c-5.7,0-8.8-3.3-8.8-9.6v-29.6h13.4l3.6-12.7h-17v-13.6l-14.8,4.3v52c0,14.1,7.9,21.5,21.8,21.5
				c5.3,0,10.7-1.4,14.2-4.3l-4.2-10.6C463,201.1,460.1,201.9,457,201.9z"/>
			<path class="st2" d="M235.8,148.8c-9.2,0-17,3.1-21.8,9l-2-6.9l-12.1,3.5v59h14.8v-32.3c0-12.8,7.1-19.2,17.7-19.2
				c9.5,0,15.1,5.5,15.1,16.9v34.6h14.8v-36.6C262.2,157.6,251,148.8,235.8,148.8z"/>
			<path class="st2" d="M538.5,148.8c-9.2,0-17,3.1-21.8,9l-2-6.9l-12.1,3.5v59h14.8v-32.3c0-12.8,7.1-19.2,17.7-19.2
				c9.5,0,15.1,5.5,15.1,16.9v34.6H565v-36.6C565,157.6,553.7,148.8,538.5,148.8z"/>
			<path class="st2" d="M41.1,171.7c0-24.9,19-42.8,44.6-42.8c13.6,0,25.2,4.9,33,13.9l-10,9.4c-6.1-6.5-13.6-9.8-22.3-9.8
				c-17.3,0-29.8,12.1-29.8,29.3S69.2,201,86.4,201c8.7,0,16.2-3.2,22.3-9.9l10,9.5c-7.7,9-19.4,13.9-33.1,13.9
				C60.1,214.6,41.1,196.6,41.1,171.7z"/>
			<path class="st2" d="M123,181.6c0-19,14.3-32.5,33.8-32.5c19.8,0,33.9,13.4,33.9,32.5c0,19-14.2,32.6-33.9,32.6
				C137.3,214.2,123,200.6,123,181.6z M175.7,181.6c0-12.1-8.1-19.9-18.9-19.9c-10.7,0-18.8,7.7-18.8,19.9
				c0,12.1,8.1,19.9,18.8,19.9C167.6,201.5,175.7,193.7,175.7,181.6z"/>
			<path class="st2" d="M269.5,207.1l5.7-11.3c5.6,3.7,14.2,6.3,22.1,6.3c9.4,0,13.3-2.6,13.3-7c0-12.1-39.3-0.7-39.3-26.1
				c0-12,10.8-19.9,28-19.9c8.4,0,18.1,2,23.8,5.5l-5.7,11.3c-6.1-3.6-12.1-4.8-18.2-4.8c-9,0-13.3,3-13.3,7.1
				c0,12.9,39.3,1.4,39.3,26.3c0,11.9-10.9,19.6-28.8,19.6C285.8,214.2,275.2,211.1,269.5,207.1z"/>
			<path class="st2" d="M396.2,213.4H382v-8.1c-4.8,5.8-12.3,8.9-20.5,8.9c-16.3,0-27.4-8.9-27.4-28.1V154l14.9-4.2v34.3
				c0,11.5,5.5,17,14.9,17c10.4,0,17.4-6.4,17.4-19.2v-28l14.9-4.2V213.4z"/>
			<path class="st2" d="M422.2,125.1v88.3h-14.9v-84.1L422.2,125.1z"/>
			<path class="st2" d="M474.4,130.4c0-5,4-8.9,9.5-8.9s9.5,3.7,9.5,8.6c0,5.2-3.9,9.3-9.5,9.3C478.5,139.4,474.4,135.4,474.4,130.4
				z M491.3,149.8v63.6h-14.9V154L491.3,149.8z"/>
			<path class="st2" d="M642.4,203.7c0,23.1-12,33.6-34.3,33.6c-11.9,0-23.7-3.1-30.9-9l6.7-11.2c5.6,4.6,14.6,7.6,23.4,7.6
				c14,0,20.2-6.4,20.2-19.3v-3.3c-5.2,5.7-12.7,8.5-21.3,8.5c-18.2,0-32.1-12.4-32.1-30.8c0-18.4,13.9-30.6,32.1-30.6
				c8.9,0,16.8,2.9,22,9.2l1.2-4.5l13-3.9V203.7z M627.8,179.7c0-10.7-8.1-18-19.3-18c-11.3,0-19.4,7.3-19.4,18
				c0,10.8,8.1,18.2,19.4,18.2C619.7,197.9,627.8,190.5,627.8,179.7z"/>
		</g>
	</g>
</g>
</svg>
